# xmcd
#
# Track frame offsets:
#	150
#	16068
#	37237
#	51813
#	65701
#	78789
#	94000
#	113989
#	130842
#	148566
#	165982
#	181893
#
# Disc length: 2665 seconds
#
# Revision: 0
# Processed by: cddbd v1.5.2PL0 Copyright (c) Steve Scherf et al.
# Submitted via: audiograbber 1.83.01
#
DISCID=980a670c
DTITLE=Deni Hines - Water For Chocolate
DYEAR=2006
DGENRE=R&B
TTITLE0=Water For Chocolate
TTITLE1=5 Days Of Rain (Rap by Bukkcity)
TTITLE2=Cut It Up
TTITLE3=Rhythm Of Life
TTITLE4=Son Of A Preacher Man
TTITLE5=New Day
TTITLE6=Ghetto Heaven
TTITLE7=Freedom
TTITLE8=Love Journey
TTITLE9=Sweet Lovin
TTITLE10=Getting On My Nerves
TTITLE11=That's You
EXTD=
EXTT0=
EXTT1=
EXTT2=
EXTT3=
EXTT4=
EXTT5=
EXTT6=
EXTT7=
EXTT8=
EXTT9=
EXTT10=
EXTT11=
PLAYORDER=
